<?xml version="1.0" encoding="iso-8859-1"?>
<!-- Generator: Adobe Illustrator 19.0.0, SVG Export Plug-In . SVG Version: 6.00 Build 0)  -->
<svg version="1.1" id="Capa_1" xmlns="http://www.w3.org/2000/svg" xmlns:xlink="http://www.w3.org/1999/xlink" x="0px" y="0px"
	 viewBox="0 0 133.566 133.566" style="enable-background:new 0 0 133.566 133.566;" xml:space="preserve">
<g>
	<path style="fill:#010002;" d="M129.363,133.566H19.543c-2.101,0-3.802-1.7-3.802-3.802V19.944c0-2.101,1.7-3.802,3.802-3.802
		h109.82c2.101,0,3.802,1.7,3.802,3.802v109.82C133.165,131.865,131.464,133.566,129.363,133.566z M23.345,125.962h102.216V23.746
		H23.345V125.962z"/>
	<path style="fill:#010002;" d="M4.203,90.767c-2.101,0-3.802-1.7-3.802-3.802V3.802C0.401,1.7,2.101,0,4.203,0H78.5
		c2.101,0,3.802,1.7,3.802,3.802s-1.7,3.802-3.802,3.802H8.004v79.361C8.004,89.066,6.304,90.767,4.203,90.767z"/>
</g>
<g>
</g>
<g>
</g>
<g>
</g>
<g>
</g>
<g>
</g>
<g>
</g>
<g>
</g>
<g>
</g>
<g>
</g>
<g>
</g>
<g>
</g>
<g>
</g>
<g>
</g>
<g>
</g>
<g>
</g>
</svg>
